<svg xmlns="http://www.w3.org/2000/svg" viewBox="0 0 480 320" width="480" height="320" role="img" ><title>workforce article illustration</title><defs><linearGradient id="g" x1="0" y1="0" x2="0" y2="1"><stop offset="0" stop-color="#7a3b4a"/><stop offset="1" stop-color="#4a2032"/></linearGradient></defs><rect width="480" height="320" fill="url(#g)"/><circle cx="393.59999999999997" cy="57.599999999999994" r="147.20000000000002" fill="#fff" opacity="0.05"/><circle cx="48.0" cy="304.0" r="160.0" fill="#fff" opacity="0.05"/><rect x="70" y="66" width="340" height="190" rx="16" fill="#fff" opacity="1"/><rect x="70" y="66" width="340" height="34" rx="16" fill="#0b7a83" opacity="1"/><rect x="70" y="84" width="340" height="16" rx="0" fill="#0b7a83" opacity="1"/><circle cx="102" cy="128" r="9" fill="#f0a12b" opacity="0.55"/><circle cx="148" cy="128" r="9" fill="#2b76c0" opacity="1"/><circle cx="194" cy="128" r="9" fill="#f0a12b" opacity="1"/><circle cx="240" cy="128" r="9" fill="#2b76c0" opacity="0.55"/><circle cx="286" cy="128" r="9" fill="#f0a12b" opacity="1"/><circle cx="332" cy="128" r="9" fill="#2b76c0" opacity="1"/><circle cx="378" cy="128" r="9" fill="#f0a12b" opacity="0.55"/><circle cx="102" cy="162" r="9" fill="#d4e0ec" opacity="1"/><circle cx="148" cy="162" r="9" fill="#0b7a83" opacity="1"/><circle cx="194" cy="162" r="9" fill="#d4e0ec" opacity="0.55"/><circle cx="240" cy="162" r="9" fill="#0b7a83" opacity="1"/><circle cx="286" cy="162" r="9" fill="#d4e0ec" opacity="1"/><circle cx="332" cy="162" r="9" fill="#0b7a83" opacity="0.55"/><circle cx="378" cy="162" r="9" fill="#d4e0ec" opacity="1"/><circle cx="102" cy="196" r="9" fill="#2b76c0" opacity="1"/><circle cx="148" cy="196" r="9" fill="#f0a12b" opacity="0.55"/><circle cx="194" cy="196" r="9" fill="#2b76c0" opacity="1"/><circle cx="240" cy="196" r="9" fill="#f0a12b" opacity="1"/><circle cx="286" cy="196" r="9" fill="#2b76c0" opacity="0.55"/><circle cx="332" cy="196" r="9" fill="#f0a12b" opacity="1"/><circle cx="378" cy="196" r="9" fill="#2b76c0" opacity="1"/><circle cx="102" cy="230" r="9" fill="#0b7a83" opacity="0.55"/><circle cx="148" cy="230" r="9" fill="#d4e0ec" opacity="1"/><circle cx="194" cy="230" r="9" fill="#0b7a83" opacity="1"/><circle cx="240" cy="230" r="9" fill="#d4e0ec" opacity="0.55"/><circle cx="286" cy="230" r="9" fill="#0b7a83" opacity="1"/><circle cx="332" cy="230" r="9" fill="#d4e0ec" opacity="1"/><circle cx="378" cy="230" r="9" fill="#0b7a83" opacity="0.55"/><g transform="translate(410.0,240.0) scale(0.9)" opacity="1.0"><path d="M-36,40 Q-36,2 0,2 Q36,2 36,40 Z" fill="#f0a12b"/><rect x="-6" y="-13" width="12" height="17" rx="4" fill="#c98e65"/><path d="M-6,-3 Q0,4 6,-3 L6,4 L-6,4 Z" fill="#000" opacity=".12"/><circle cx="0" cy="-28" r="17" fill="#c98e65"/><path d="M-17.6,-28 A17.6,17.6 0 0 1 17.6,-28 Q10,-41 -2,-39 Q-13,-38 -17.6,-28 Z" fill="#3a281c"/><path d="M-19,-29 A19,19 0 0 1 19,-29" fill="none" stroke="#1b2434" stroke-width="3.2" stroke-linecap="round"/><rect x="-23" y="-32" width="6" height="13" rx="3" fill="#1b2434"/><rect x="17" y="-32" width="6" height="13" rx="3" fill="#1b2434"/><path d="M-20,-20 Q-17,-6 -5,-8" fill="none" stroke="#1b2434" stroke-width="2.4" stroke-linecap="round"/><circle cx="-5" cy="-8" r="2.6" fill="#f0a12b"/></g></svg>