<svg xmlns="http://www.w3.org/2000/svg" viewBox="0 0 480 320" width="480" height="320" role="img" ><title>data article illustration</title><defs><linearGradient id="g" x1="0" y1="0" x2="0" y2="1"><stop offset="0" stop-color="#0a4d5c"/><stop offset="1" stop-color="#0b2f4a"/></linearGradient></defs><rect width="480" height="320" fill="url(#g)"/><circle cx="393.59999999999997" cy="57.599999999999994" r="147.20000000000002" fill="#fff" opacity="0.05"/><circle cx="48.0" cy="304.0" r="160.0" fill="#fff" opacity="0.05"/><path d="M60,92 v70 a45.0,12 0 0 0 90,0 v-70" fill="#2b76c0"/><ellipse cx="105.0" cy="92" rx="45.0" ry="12" fill="#2b76c0"/><ellipse cx="105.0" cy="92" rx="45.0" ry="12" fill="#fff" opacity=".22"/><path d="M60,123.5 a45.0,12 0 0 0 90,0" fill="none" stroke="#fff" stroke-opacity=".3" stroke-width="2"/><path d="M60,182 v70 a45.0,12 0 0 0 90,0 v-70" fill="#5cc4c9"/><ellipse cx="105.0" cy="182" rx="45.0" ry="12" fill="#5cc4c9"/><ellipse cx="105.0" cy="182" rx="45.0" ry="12" fill="#fff" opacity=".22"/><path d="M60,213.5 a45.0,12 0 0 0 90,0" fill="none" stroke="#fff" stroke-opacity=".3" stroke-width="2"/><line x1="164" y1="160" x2="205.0" y2="160.0" stroke="#fff" stroke-width="3" opacity="1" stroke-linecap="round"/><polygon points="214,160 205.0,154.0 205.0,166.0" fill="#fff"/><rect x="220" y="70" width="200" height="190" rx="14" fill="#fff" opacity="1"/><rect x="220" y="70" width="200" height="30" rx="14" fill="#0b2a4a" opacity="1"/><rect x="220" y="88" width="200" height="12" rx="0" fill="#0b2a4a" opacity="1"/><rect x="236" y="114" width="44" height="8" rx="4" fill="#c6d3e2" opacity="1"/><rect x="290" y="114" width="60" height="8" rx="4" fill="#c6d3e2" opacity="1"/><circle cx="396" cy="119" r="8" fill="#0b7a83" opacity="1"/><path d="M392.3,119.2 L395.2,122.0 L400.0,116.1" fill="none" opacity="1" stroke="#fff" stroke-width="1.7600000000000002" stroke-linecap="round" stroke-linejoin="round"/><rect x="236" y="142" width="44" height="8" rx="4" fill="#c6d3e2" opacity="1"/><rect x="290" y="142" width="60" height="8" rx="4" fill="#c6d3e2" opacity="1"/><circle cx="396" cy="147" r="8" fill="#0b7a83" opacity="1"/><path d="M392.3,147.2 L395.2,150.0 L400.0,144.1" fill="none" opacity="1" stroke="#fff" stroke-width="1.7600000000000002" stroke-linecap="round" stroke-linejoin="round"/><rect x="236" y="170" width="44" height="8" rx="4" fill="#c6d3e2" opacity="1"/><rect x="290" y="170" width="60" height="8" rx="4" fill="#c6d3e2" opacity="1"/><circle cx="396" cy="175" r="8" fill="#f0a12b" opacity="1"/><path d="M392.3,175.2 L395.2,178.0 L400.0,172.1" fill="none" opacity="1" stroke="#fff" stroke-width="1.7600000000000002" stroke-linecap="round" stroke-linejoin="round"/><rect x="236" y="198" width="44" height="8" rx="4" fill="#c6d3e2" opacity="1"/><rect x="290" y="198" width="60" height="8" rx="4" fill="#c6d3e2" opacity="1"/><circle cx="396" cy="203" r="8" fill="#0b7a83" opacity="1"/><path d="M392.3,203.2 L395.2,206.0 L400.0,200.1" fill="none" opacity="1" stroke="#fff" stroke-width="1.7600000000000002" stroke-linecap="round" stroke-linejoin="round"/><rect x="236" y="226" width="44" height="8" rx="4" fill="#c6d3e2" opacity="1"/><rect x="290" y="226" width="60" height="8" rx="4" fill="#c6d3e2" opacity="1"/><circle cx="396" cy="231" r="8" fill="#0b7a83" opacity="1"/><path d="M392.3,231.2 L395.2,234.0 L400.0,228.1" fill="none" opacity="1" stroke="#fff" stroke-width="1.7600000000000002" stroke-linecap="round" stroke-linejoin="round"/></svg>