<svg xmlns="http://www.w3.org/2000/svg" viewBox="0 0 480 320" width="480" height="320" role="img" ><title>Telecom operations illustration</title><defs><linearGradient id="g" x1="0" y1="0" x2="0" y2="1"><stop offset="0" stop-color="#1c4d8a"/><stop offset="1" stop-color="#0d2c58"/></linearGradient></defs><rect width="480" height="320" fill="url(#g)"/><circle cx="393.59999999999997" cy="57.599999999999994" r="147.20000000000002" fill="#fff" opacity="0.05"/><circle cx="48.0" cy="304.0" r="160.0" fill="#fff" opacity="0.05"/><path d="M240,60 L200,262 M240,60 L280,262 M212,196 L268,196 M222,150 L258,150 M204,240 L276,240 M212,196 L276,240 M268,196 L204,240" fill="none" opacity="1" stroke="#fff" stroke-width="4" stroke-linecap="round" stroke-linejoin="round"/><circle cx="240" cy="56" r="11" fill="#f0a12b" opacity="1"/><path d="M210,70 A30,30 0 0 1 210,42" fill="none" opacity="0.7" stroke="#fff" stroke-width="3" stroke-linecap="round" stroke-linejoin="round"/><path d="M270,70 A30,30 0 0 0 270,42" fill="none" opacity="0.7" stroke="#fff" stroke-width="3" stroke-linecap="round" stroke-linejoin="round"/><path d="M188,79 A52,52 0 0 1 188,33" fill="none" opacity="0.5499999999999999" stroke="#fff" stroke-width="3" stroke-linecap="round" stroke-linejoin="round"/><path d="M292,79 A52,52 0 0 0 292,33" fill="none" opacity="0.5499999999999999" stroke="#fff" stroke-width="3" stroke-linecap="round" stroke-linejoin="round"/><path d="M164,90 A76,76 0 0 1 164,22" fill="none" opacity="0.39999999999999997" stroke="#fff" stroke-width="3" stroke-linecap="round" stroke-linejoin="round"/><path d="M316,90 A76,76 0 0 0 316,22" fill="none" opacity="0.39999999999999997" stroke="#fff" stroke-width="3" stroke-linecap="round" stroke-linejoin="round"/><rect x="50" y="244" width="14" height="16" rx="3" fill="#5cc4c9" opacity="1"/><rect x="72" y="230" width="14" height="30" rx="3" fill="#5cc4c9" opacity="1"/><rect x="94" y="214" width="14" height="46" rx="3" fill="#5cc4c9" opacity="1"/><rect x="116" y="198" width="14" height="62" rx="3" fill="#f0a12b" opacity="1"/><rect x="330" y="150" width="124" height="100" rx="12" fill="#fff" opacity="1"/><rect x="346" y="170" width="90" height="6" rx="3.0" fill="#c6d3e2" opacity="1"/><rect x="346" y="186" width="90" height="6" rx="3.0" fill="#c6d3e2" opacity="1"/><rect x="346" y="202" width="55.8" height="6" rx="3.0" fill="#c6d3e2" opacity="1"/><circle cx="436" cy="236" r="0" fill="#0b7a83" opacity="1"/><path d="M436.0,236.0 L436.0,236.0 L436.0,236.0" fill="none" opacity="1" stroke="#fff" stroke-width="1.6" stroke-linecap="round" stroke-linejoin="round"/><circle cx="430" cy="232" r="9" fill="#0b7a83" opacity="1"/><path d="M425,232 L429,236 L436,228" fill="none" opacity="1" stroke="#fff" stroke-width="2.4" stroke-linecap="round" stroke-linejoin="round"/></svg>