<svg xmlns="http://www.w3.org/2000/svg" viewBox="0 0 480 320" width="480" height="320" role="img" ><title>Professional operations illustration</title><defs><linearGradient id="g" x1="0" y1="0" x2="0" y2="1"><stop offset="0" stop-color="#0e4a5c"/><stop offset="1" stop-color="#0a2f42"/></linearGradient></defs><rect width="480" height="320" fill="url(#g)"/><circle cx="393.59999999999997" cy="57.599999999999994" r="147.20000000000002" fill="#fff" opacity="0.05"/><circle cx="48.0" cy="304.0" r="160.0" fill="#fff" opacity="0.05"/><rect x="120" y="120" width="240" height="150" rx="14" fill="#fff" opacity="1"/><path d="M208,120 V102 a10,10 0 0 1 10,-10 h44 a10,10 0 0 1 10,10 V120" fill="none" opacity="1" stroke="#fff" stroke-width="8" stroke-linecap="round" stroke-linejoin="round"/><rect x="120" y="180" width="240" height="8" rx="0" fill="#12406b" opacity="0.25"/><rect x="226" y="172" width="28" height="24" rx="5" fill="#f0a12b" opacity="1"/><g><rect x="46" y="60" width="84" height="110" rx="6" fill="#fff" opacity="1"/><rect x="46" y="60" width="84" height="110" rx="6" fill="none" opacity="1" stroke="#c9d6e5" stroke-width="1.2"/><rect x="56" y="70" width="33.6" height="8" rx="4" fill="#0b7a83" opacity="1"/><rect x="56" y="88" width="64" height="4" rx="2.0" fill="#c6d3e2" opacity="1"/><rect x="56" y="98" width="64" height="4" rx="2.0" fill="#c6d3e2" opacity="1"/><rect x="56" y="108" width="64" height="4" rx="2.0" fill="#c6d3e2" opacity="1"/><rect x="56" y="118" width="39.68" height="4" rx="2.0" fill="#c6d3e2" opacity="1"/></g><circle cx="400" cy="90" r="40" fill="#fff" opacity="1"/><path d="M400,66 V90 L416,100" fill="none" opacity="1" stroke="#0b2a4a" stroke-width="4" stroke-linecap="round" stroke-linejoin="round"/><rect x="360" y="258" width="14" height="26" rx="3" fill="#5cc4c9" opacity="1"/><rect x="382" y="240" width="14" height="44" rx="3" fill="#7db8f0" opacity="1"/><rect x="404" y="250" width="14" height="34" rx="3" fill="#5cc4c9" opacity="1"/><rect x="426" y="226" width="14" height="58" rx="3" fill="#f0a12b" opacity="1"/></svg>