<svg xmlns="http://www.w3.org/2000/svg" viewBox="0 0 640 480" width="640" height="480" role="img" ><title>Customer support agent with a headset handling tickets and live chats</title><defs></defs><rect x="0" y="0" width="640" height="480" rx="0" fill="#e8f0f8" opacity="1"/><circle cx="470" cy="250" r="190" fill="#d6e4f3" opacity="1"/><circle cx="90" cy="420" r="90" fill="#d6e4f3" opacity="1"/><rect x="0" y="420" width="640" height="60" rx="0" fill="#c5d7ea" opacity="1"/><g transform="translate(190.0,273.6) scale(2.3)" opacity="1.0"><path d="M-20,-30 Q-25,-4 -17,6 L-9,-8 L9,-8 L17,6 Q25,-4 20,-30 Z" fill="#3a281c"/><path d="M-36,46 Q-36,2 0,2 Q36,2 36,46 Z" fill="#0b7a83"/><rect x="-6" y="-13" width="12" height="17" rx="4" fill="#c98e65"/><path d="M-6,-3 Q0,4 6,-3 L6,4 L-6,4 Z" fill="#000" opacity=".12"/><circle cx="0" cy="-28" r="17" fill="#c98e65"/><path d="M-17.6,-28 A17.6,17.6 0 0 1 17.6,-28 Q10,-41 -2,-39 Q-13,-38 -17.6,-28 Z" fill="#3a281c"/><path d="M-19,-29 A19,19 0 0 1 19,-29" fill="none" stroke="#1b2434" stroke-width="3.2" stroke-linecap="round"/><rect x="-23" y="-32" width="6" height="13" rx="3" fill="#1b2434"/><rect x="17" y="-32" width="6" height="13" rx="3" fill="#1b2434"/><path d="M-20,-20 Q-17,-6 -5,-8" fill="none" stroke="#1b2434" stroke-width="2.4" stroke-linecap="round"/><circle cx="-5" cy="-8" r="2.6" fill="#f0a12b"/></g><g transform="translate(190.0,430.0) scale(2.3)" opacity="1.0"><rect x="-31" y="-42" width="62" height="40" rx="4" fill="#2c3b55"/><rect x="-31" y="-42" width="62" height="5" rx="2.5" fill="#000" opacity=".18"/><circle cx="0" cy="-20" r="3" fill="#f0a12b" opacity=".9"/><rect x="-6" y="-2" width="12" height="4" fill="#26324a"/></g><circle cx="78" cy="84" r="38" fill="#f0a12b" opacity="1"/><text x="78" y="92" text-anchor="middle" font-family="Arial, Helvetica, sans-serif" font-size="22" font-weight="700" fill="#2a1a00">24/7</text><rect x="340" y="34" width="220" height="74" rx="16" fill="#fff" opacity="1"/><path d="M380,108 L372,126 L398,108 Z" fill="#fff" opacity="1"/><circle cx="392" cy="71" r="5" fill="#2b76c0" opacity="1"/><circle cx="410" cy="71" r="5" fill="#2b76c0" opacity="0.6"/><circle cx="428" cy="71" r="5" fill="#2b76c0" opacity="0.3"/><rect x="455" y="60" width="90" height="5" rx="2.5" fill="#c6d3e2" opacity="1"/><rect x="455" y="72" width="55.8" height="5" rx="2.5" fill="#c6d3e2" opacity="1"/><rect x="350" y="150" width="260" height="78" rx="12" fill="#fff" opacity="1"/><circle cx="384" cy="189" r="18" fill="#0b7a83" opacity="0.18"/><circle cx="384" cy="189" r="8" fill="#0b7a83" opacity="1"/><rect x="416" y="172" width="120" height="5" rx="2.5" fill="#c6d3e2" opacity="1"/><rect x="416" y="185" width="74.4" height="5" rx="2.5" fill="#c6d3e2" opacity="1"/><rect x="416" y="200" width="74" height="16" rx="8" fill="#0b7a83" opacity="0.16"/><text x="453" y="212" text-anchor="middle" font-family="Arial, Helvetica, sans-serif" font-size="10" font-weight="700" fill="#0e1a2b">Resolved</text><rect x="342" y="242" width="260" height="78" rx="12" fill="#fff" opacity="1"/><circle cx="376" cy="281" r="18" fill="#f0a12b" opacity="0.18"/><circle cx="376" cy="281" r="8" fill="#f0a12b" opacity="1"/><rect x="408" y="264" width="120" height="5" rx="2.5" fill="#c6d3e2" opacity="1"/><rect x="408" y="277" width="74.4" height="5" rx="2.5" fill="#c6d3e2" opacity="1"/><rect x="408" y="292" width="74" height="16" rx="8" fill="#f0a12b" opacity="0.16"/><text x="445" y="304" text-anchor="middle" font-family="Arial, Helvetica, sans-serif" font-size="10" font-weight="700" fill="#0e1a2b">In progress</text><rect x="334" y="334" width="260" height="78" rx="12" fill="#fff" opacity="1"/><circle cx="368" cy="373" r="18" fill="#2b76c0" opacity="0.18"/><circle cx="368" cy="373" r="8" fill="#2b76c0" opacity="1"/><rect x="400" y="356" width="120" height="5" rx="2.5" fill="#c6d3e2" opacity="1"/><rect x="400" y="369" width="74.4" height="5" rx="2.5" fill="#c6d3e2" opacity="1"/><rect x="400" y="384" width="74" height="16" rx="8" fill="#2b76c0" opacity="0.16"/><text x="437" y="396" text-anchor="middle" font-family="Arial, Helvetica, sans-serif" font-size="10" font-weight="700" fill="#0e1a2b">New</text><polygon points="388.0,431.0 390.4,436.7 396.6,437.2 391.9,441.3 393.3,447.3 388.0,444.1 382.7,447.3 384.1,441.3 379.4,437.2 385.6,436.7" fill="#f0a12b"/><polygon points="410.0,431.0 412.4,436.7 418.6,437.2 413.9,441.3 415.3,447.3 410.0,444.1 404.7,447.3 406.1,441.3 401.4,437.2 407.6,436.7" fill="#f0a12b"/><polygon points="432.0,431.0 434.4,436.7 440.6,437.2 435.9,441.3 437.3,447.3 432.0,444.1 426.7,447.3 428.1,441.3 423.4,437.2 429.6,436.7" fill="#f0a12b"/><polygon points="454.0,431.0 456.4,436.7 462.6,437.2 457.9,441.3 459.3,447.3 454.0,444.1 448.7,447.3 450.1,441.3 445.4,437.2 451.6,436.7" fill="#f0a12b"/><polygon points="476.0,431.0 478.4,436.7 484.6,437.2 479.9,441.3 481.3,447.3 476.0,444.1 470.7,447.3 472.1,441.3 467.4,437.2 473.6,436.7" fill="#f0a12b"/></svg>